<svg xmlns="http://www.w3.org/2000/svg" xmlns:xlink="http://www.w3.org/1999/xlink" version="1.1" x="0px" y="0px" viewBox="0 0 100 100" enable-background="new 0 0 100 100" xml:space="preserve"><path fill-rule="evenodd" clip-rule="evenodd" d="M51.782,71.783c1.306,0.654,2.203,2.005,2.203,3.565  c0,2.203-1.784,3.985-3.985,3.985s-3.984-1.784-3.984-3.985c0-1.56,0.897-2.911,2.203-3.565c0.622-0.31,0.917-1.019,0.699-1.679  c-0.978-2.971-2.402-5.76-4.23-8.183c-2.001-2.654-4.485-4.87-7.394-6.401c-2.501-1.319-5.445-2.225-8.33-2.283  c-2.422-0.049-4.805,0.503-6.845,1.922c-1.119,0.776-2.057,1.745-2.772,2.824c-0.729,1.096-1.231,2.306-1.466,3.543  c-0.535,2.822,0.379,5.279,1.994,7.025c0.916,0.993,2.057,1.759,3.285,2.234c1.221,0.473,2.527,0.662,3.783,0.502  c3.573-0.455,6.516-4.103,5.501-7.704c-0.702-2.493-3.211-4.426-5.842-3.684c-0.368,0.105-0.723,0.257-1.054,0.458  c0.649,0.328,1.096,0.839,1.096,1.776c0,0.936-0.89,1.988-1.988,1.988c-1.099,0-1.977-0.89-1.988-1.988  c-0.008-0.735,0.368-1.505,0.961-2.092c3.343-3.302,8.828-1.355,10.108,3.18c1.239,4.393-2.225,8.836-6.626,9.398  c-1.482,0.19-3.013-0.028-4.437-0.582c-1.417-0.549-2.733-1.433-3.79-2.574c-1.881-2.038-2.947-4.9-2.323-8.184  c0.268-1.416,0.839-2.794,1.663-4.037c0.811-1.22,1.866-2.313,3.125-3.187c2.291-1.591,4.948-2.212,7.64-2.157  c3.107,0.061,6.26,1.028,8.929,2.433c0.549,0.29,1.082,0.602,1.602,0.934l-0.654-0.701c-0.801-0.854-1.599-1.707-2.361-2.587  c-0.387-0.445-0.749-0.905-1.074-1.384c-0.331-0.488-0.618-0.986-0.845-1.499c-0.803-1.811-0.853-3.631-0.39-5.218  c0.514-1.765,1.671-3.242,3.136-4.101c1.778-1.041,3.658-1.014,5.23-0.345c0.878,0.375,1.66,0.953,2.27,1.659  c0.616,0.713,1.062,1.56,1.259,2.461c0.314,1.434,0.011,2.999-1.202,4.388c-0.779,0.892-1.845,1.384-2.94,1.46  c-0.754,0.05-1.903-0.13-2.7-0.644c-0.561-0.362-0.938-0.913-0.938-1.569c0-0.878,0.713-1.59,1.591-1.59  c0.876,0,1.59,0.994,1.59,1.59s-0.091,0.604-0.248,0.85c0.204,0.028,0.411,0.036,0.615,0.022c0.752-0.05,1.485-0.389,2.019-1  c0.898-1.03,1.126-2.176,0.897-3.222c-0.149-0.679-0.488-1.322-0.96-1.867c-0.478-0.552-1.093-1.006-1.781-1.301  c-1.211-0.514-2.658-0.535-4.025,0.267c-1.177,0.69-2.107,1.884-2.526,3.319c-0.38,1.3-0.334,2.799,0.332,4.302  c0.198,0.445,0.444,0.873,0.724,1.287c0.287,0.422,0.618,0.842,0.98,1.257c0.801,0.925,1.56,1.737,2.324,2.551  c2.181,2.331,4.387,4.686,6.751,8.636c1.066,1.58,1.979,3.288,2.73,5.078V53.154h-2.938c-0.372,0-0.674-0.301-0.674-0.674  c0-0.372,0.302-0.673,0.674-0.673h2.938v-9.982c-0.019-2.825-1.068-4.544-2.974-5.809c-0.284-0.188-0.412-0.519-0.332-0.85  l3.401-14.043c0.066-0.271,0.301-0.455,0.578-0.456c0.279,0.002,0.514,0.185,0.58,0.456l3.401,14.043  c0.08,0.331-0.049,0.662-0.332,0.85c-1.906,1.265-2.957,2.984-2.974,5.809v9.982h2.938c0.372,0,0.674,0.301,0.674,0.673  c0,0.373-0.302,0.674-0.674,0.674h-2.938v14.208c0.751-1.79,1.664-3.498,2.73-5.078c2.364-3.949,4.57-6.304,6.751-8.636  c0.764-0.814,1.522-1.626,2.324-2.551c0.362-0.415,0.693-0.836,0.98-1.257c0.281-0.414,0.527-0.842,0.724-1.287  c0.666-1.504,0.71-3.002,0.332-4.302c-0.419-1.435-1.348-2.629-2.526-3.319c-1.367-0.801-2.816-0.781-4.025-0.267  c-0.688,0.295-1.303,0.749-1.781,1.301c-0.472,0.546-0.811,1.188-0.96,1.867c-0.229,1.046-0.002,2.192,0.897,3.222  c0.533,0.611,1.267,0.95,2.019,1c0.204,0.014,0.411,0.006,0.615-0.022c-0.157-0.246-0.248-0.254-0.248-0.85s0.713-1.59,1.59-1.59  c0.878,0,1.591,0.712,1.591,1.59c0,0.657-0.376,1.207-0.938,1.569c-0.796,0.514-1.946,0.695-2.7,0.644  c-1.094-0.075-2.16-0.568-2.94-1.46c-1.213-1.389-1.516-2.954-1.202-4.388c0.197-0.902,0.643-1.748,1.259-2.461  c0.61-0.706,1.392-1.284,2.272-1.659c1.569-0.669,3.451-0.696,5.229,0.345c1.465,0.859,2.622,2.336,3.136,4.101  c0.463,1.587,0.412,3.407-0.39,5.218c-0.227,0.513-0.514,1.011-0.845,1.499c-0.326,0.48-0.688,0.939-1.074,1.384  c-0.762,0.879-1.562,1.732-2.361,2.587l-0.654,0.701c0.52-0.332,1.054-0.644,1.602-0.934c2.668-1.405,5.821-2.372,8.929-2.433  c2.69-0.055,5.35,0.566,7.64,2.157c1.257,0.875,2.314,1.968,3.125,3.187c0.825,1.243,1.395,2.621,1.663,4.037  c0.622,3.285-0.442,6.146-2.323,8.184c-1.057,1.141-2.372,2.026-3.79,2.574c-1.424,0.553-2.955,0.771-4.437,0.582  c-4.401-0.561-7.864-5.005-6.626-9.398c1.279-4.534,6.767-6.481,10.108-3.18c0.593,0.586,0.969,1.356,0.961,2.092  c-0.011,1.097-0.889,1.988-1.988,1.988c-1.097,0-1.986-1.052-1.986-1.988c0-0.938,0.444-1.449,1.094-1.776  c-0.331-0.201-0.685-0.353-1.054-0.458c-2.631-0.742-5.139,1.192-5.842,3.684c-1.014,3.601,1.927,7.25,5.501,7.704  c1.256,0.16,2.562-0.028,3.783-0.502c1.228-0.475,2.369-1.242,3.285-2.234c1.615-1.747,2.529-4.203,1.993-7.025  c-0.234-1.237-0.735-2.447-1.463-3.543c-0.716-1.079-1.654-2.048-2.773-2.824c-2.04-1.419-4.423-1.971-6.845-1.922  c-2.885,0.058-5.829,0.964-8.33,2.283c-2.908,1.532-5.393,3.747-7.394,6.401c-1.828,2.422-3.252,5.211-4.23,8.183  C50.865,70.764,51.16,71.472,51.782,71.783z"/></svg>