<svg xmlns="http://www.w3.org/2000/svg" xmlns:xlink="http://www.w3.org/1999/xlink" version="1.1" x="0px" y="0px" viewBox="0 0 100 100" enable-background="new 0 0 100 100" xml:space="preserve"><path fill-rule="evenodd" clip-rule="evenodd" d="M49.633,46.319c-1.46-1.509-2.289-2.638-4.712-3.666  c-0.126-0.054-0.197-0.136-0.202-0.233c-0.005-0.098,0.057-0.183,0.177-0.242c0.753-0.369,1.61-0.524,2.579-0.448  c0.088-1.226,1.394-2.104,2.159-3.324c0.071-0.112,0.222-0.155,0.365-0.155c0.143,0,0.294,0.043,0.365,0.155  c0.765,1.22,2.072,2.098,2.159,3.324c0.969-0.076,1.828,0.079,2.579,0.448c0.12,0.059,0.183,0.144,0.177,0.242  c-0.005,0.098-0.076,0.18-0.202,0.233c-2.421,1.029-3.252,2.157-4.712,3.666c-0.1,0.103-0.222,0.156-0.367,0.156  C49.857,46.475,49.733,46.422,49.633,46.319L49.633,46.319z M77.885,56.734c2.083,0.843,4.293,1.357,6.456,0.93  c1.059-0.22,2.085-0.744,2.781-1.541c0.699-0.778,1.087-1.811,1.007-2.788c-0.078-0.986-0.571-1.789-1.185-2.326  c-0.624-0.535-1.361-0.782-2.017-0.819c-0.904-0.062-1.618,0.25-2.092,0.632c-0.41,0.291-0.685,0.731-0.655,1.351  c0.039,0.808,0.726,1.43,1.533,1.391c0.682-0.033,1.233-0.528,1.365-1.168c0.159-0.785,1.093-0.871,1.558-0.27  c0.26,0.336,0.396,0.831,0.389,1.252c-0.005,0.655-0.312,1.337-0.843,1.864c-0.528,0.534-1.27,0.876-2.115,1.023  c-1.692,0.283-3.705-0.178-5.589-0.952c-5.459-2.394-10.132-6.767-16.122-9.029c-1.493-0.553-3.08-0.96-4.731-1.027  c-1.654-0.064-3.335,0.221-4.872,1.035c-1.238,0.672-2.217,1.792-2.752,3.092c-0.535-1.3-1.515-2.42-2.751-3.092  c-1.538-0.814-3.219-1.098-4.872-1.035c-1.652,0.067-3.239,0.474-4.733,1.027c-5.989,2.263-10.663,6.635-16.122,9.029  c-1.882,0.773-3.897,1.235-5.588,0.952c-0.845-0.147-1.587-0.489-2.115-1.023c-0.533-0.528-0.839-1.209-0.844-1.864  c-0.007-0.421,0.128-0.916,0.389-1.252c0.464-0.601,1.4-0.516,1.559,0.27c0.131,0.64,0.682,1.135,1.363,1.168  c0.809,0.039,1.495-0.584,1.534-1.391c0.029-0.621-0.244-1.06-0.655-1.351c-0.474-0.381-1.187-0.694-2.093-0.632  c-0.656,0.037-1.393,0.283-2.016,0.819c-0.616,0.538-1.107,1.34-1.185,2.326c-0.082,0.977,0.308,2.01,1.007,2.788  c0.695,0.796,1.72,1.321,2.78,1.541c2.162,0.427,4.372-0.087,6.455-0.93c2.953-1.269,5.506-3.046,8.104-4.689  c2.578-1.66,5.171-3.275,7.96-4.316c1.389-0.516,2.826-0.876,4.257-0.934c1.417-0.062,2.874,0.213,4.067,0.844  c1.167,0.636,2.022,1.785,2.31,3.085c0.304,1.289,0.017,2.725-0.696,3.827c-1.002,1.538-3.008,2.138-4.578,1.621  c-1.55-0.417-2.496-2.107-2.375-3.423c0.045-0.734,0.545-1.356,1.286-1.01c0.186,0.095,0.34,0.253,0.387,0.599  c0.09,0.646,0.608,1.175,1.288,1.252c0.804,0.089,1.528-0.49,1.619-1.294c0.129-1.159-0.927-2.15-2.028-2.298  c-0.667-0.095-1.426,0.039-2.135,0.435c-0.717,0.391-1.351,1.197-1.51,2.159c-0.167,0.954,0.044,1.972,0.551,2.871  c0.486,0.891,1.387,1.718,2.469,2.062c1.054,0.371,2.276,0.408,3.417,0.048c1.137-0.358,2.192-1.117,2.888-2.165  c0.241-0.371,0.442-0.763,0.603-1.17c0.161,0.407,0.364,0.799,0.605,1.17c0.695,1.048,1.749,1.807,2.888,2.165  c1.141,0.36,2.361,0.324,3.416-0.048c1.082-0.345,1.984-1.172,2.47-2.062c0.506-0.899,0.718-1.917,0.55-2.871  c-0.159-0.961-0.793-1.768-1.51-2.159c-0.71-0.396-1.467-0.53-2.134-0.435c-1.101,0.148-2.159,1.139-2.029,2.298  c0.09,0.804,0.815,1.383,1.619,1.294c0.679-0.077,1.198-0.606,1.289-1.252c0.048-0.346,0.202-0.503,0.386-0.599  c0.741-0.346,1.241,0.276,1.286,1.01c0.122,1.316-0.825,3.007-2.374,3.423c-1.571,0.517-3.577-0.083-4.577-1.621  c-0.715-1.102-1.002-2.539-0.698-3.827c0.29-1.3,1.144-2.448,2.311-3.085c1.192-0.632,2.65-0.906,4.066-0.844  c1.432,0.059,2.87,0.419,4.259,0.934c2.789,1.041,5.381,2.656,7.96,4.316C72.379,53.688,74.932,55.464,77.885,56.734z"/></svg>